<?xml version="1.0" encoding="UTF-8" standalone="no" ?>
<!DOCTYPE svg PUBLIC "-//W3C//DTD SVG 1.1//EN" "http://www.w3.org/Graphics/SVG/1.1/DTD/svg11.dtd">
<svg xmlns="http://www.w3.org/2000/svg" xmlns:xlink="http://www.w3.org/1999/xlink" version="1.1" width="1280" height="1024" viewBox="0 0 1280 1024" xml:space="preserve">
<desc>Created with Fabric.js 5.3.0</desc>
<defs>
</defs>
<g transform="matrix(1 0 0 1 640 512)" id="background-logo"  >
<rect style="stroke: none; stroke-width: 0; stroke-dasharray: none; stroke-linecap: butt; stroke-dashoffset: 0; stroke-linejoin: miter; stroke-miterlimit: 4; fill: rgb(255,255,255); fill-opacity: 0; fill-rule: nonzero; opacity: 1;"  paint-order="stroke"  x="-640" y="-512" rx="0" ry="0" width="1280" height="1024" />
</g>
<g transform="matrix(1.9211538461538462 0 0 1.9211538461538462 642.8301838282916 492.6565864335421)" id="text-logo"  >
<g style=""  paint-order="stroke"   >
		<g transform="matrix(1 0 0 1 0 0)" id="text-logo-path-0"  >
<path style="stroke: none; stroke-width: 0; stroke-dasharray: none; stroke-linecap: butt; stroke-dashoffset: 0; stroke-linejoin: miter; stroke-miterlimit: 4; fill: rgb(17,53,182); fill-rule: nonzero; opacity: 1;"  paint-order="stroke"  transform=" translate(-201.74162691029065, 21.505)" d="M 3.97 -31.36 L 16.13 -31.36 L 10.94 0 L 22.46 0 L 27.65 -31.36 L 38.53 -31.36 L 40.58 -43.52 L 6.02 -43.52 Z M 38.46 0 L 66.62 0 L 68.54 -11.65 L 51.9 -11.65 L 52.67 -16.19 L 66.75 -16.19 L 68.67 -27.84 L 54.59 -27.84 L 55.3 -31.87 L 71.23 -31.87 L 73.15 -43.52 L 45.7 -43.52 Z M 93.06 0 L 105.47 0 L 100.29 -18.37 C 104.58 -20.48 107.52 -25.34 108.42 -30.72 C 109.89 -39.62 105.79 -43.52 94.46 -43.52 L 80.26 -43.52 L 73.02 0 L 84.54 0 L 86.85 -14.02 L 89.02 -14.02 Z M 88.38 -22.98 L 89.86 -32 L 91.33 -32 C 94.59 -32 96.38 -31.04 95.81 -27.65 C 95.3 -24.38 93.12 -22.98 89.79 -22.98 Z M 131.65 0 L 144.06 0 L 138.88 -18.37 C 143.17 -20.48 146.11 -25.34 147.01 -30.72 C 148.48 -39.62 144.38 -43.52 133.06 -43.52 L 118.85 -43.52 L 111.62 0 L 123.14 0 L 125.44 -14.02 L 127.62 -14.02 Z M 126.98 -22.98 L 128.45 -32 L 129.92 -32 C 133.18 -32 134.98 -31.04 134.4 -27.65 C 133.89 -24.38 131.71 -22.98 128.38 -22.98 Z M 149.18 0 L 160.7 0 L 167.94 -43.52 L 156.42 -43.52 Z M 171.01 -31.36 L 183.17 -31.36 L 177.98 0 L 189.5 0 L 194.69 -31.36 L 205.57 -31.36 L 207.62 -43.52 L 173.06 -43.52 Z M 224.64 0.64 C 236.8 0.64 245.82 -8 248.13 -21.76 C 250.43 -35.52 244.22 -44.16 232.06 -44.16 C 219.97 -44.16 210.82 -35.52 208.58 -21.76 C 206.27 -8 212.48 0.64 224.64 0.64 Z M 226.69 -11.65 C 221.44 -11.65 219.14 -15.3 220.16 -21.76 C 221.25 -28.22 224.83 -31.87 230.02 -31.87 C 235.2 -31.87 237.57 -28.22 236.48 -21.76 C 235.39 -15.3 231.87 -11.65 226.69 -11.65 Z M 270.98 0 L 283.39 0 L 278.21 -18.37 C 282.5 -20.48 285.44 -25.34 286.34 -30.72 C 287.81 -39.62 283.71 -43.52 272.38 -43.52 L 258.18 -43.52 L 250.94 0 L 262.46 0 L 264.77 -14.02 L 266.94 -14.02 Z M 266.3 -22.98 L 267.78 -32 L 269.25 -32 C 272.51 -32 274.3 -31.04 273.73 -27.65 C 273.22 -24.38 271.04 -22.98 267.71 -22.98 Z M 300.74 -14.34 L 300.8 -14.34 L 298.37 0 L 309.89 0 L 312.32 -14.4 L 331.39 -43.52 L 318.98 -43.52 L 309.18 -26.75 L 304.9 -43.52 L 291.14 -43.52 Z M 328.32 1.15 C 332.22 1.15 334.4 -1.28 334.4 -5.63 C 334.4 -9.98 332.22 -12.42 328.32 -12.42 C 324.35 -12.42 322.18 -9.98 322.18 -5.63 C 322.18 -1.28 324.35 1.15 328.32 1.15 Z M 339.01 0 L 350.53 0 L 357.76 -43.52 L 346.24 -43.52 Z M 375.55 0.64 C 387.71 0.64 396.74 -8 399.04 -21.76 C 401.34 -35.52 395.14 -44.16 382.98 -44.16 C 370.88 -44.16 361.73 -35.52 359.49 -21.76 C 357.18 -8 363.39 0.64 375.55 0.64 Z M 377.6 -11.65 C 372.35 -11.65 370.05 -15.3 371.07 -21.76 C 372.16 -28.22 375.74 -31.87 380.93 -31.87 C 386.11 -31.87 388.48 -28.22 387.39 -21.76 C 386.3 -15.3 382.78 -11.65 377.6 -11.65 Z" stroke-linecap="round" />
</g>
</g>
</g>
</svg>