<?xml version="1.0" encoding="UTF-8" standalone="no" ?>
<!DOCTYPE svg PUBLIC "-//W3C//DTD SVG 1.1//EN" "http://www.w3.org/Graphics/SVG/1.1/DTD/svg11.dtd">
<svg xmlns="http://www.w3.org/2000/svg" xmlns:xlink="http://www.w3.org/1999/xlink" version="1.1" width="1280" height="1024" viewBox="0 0 1280 1024" xml:space="preserve">
<desc>Created with Fabric.js 5.3.0</desc>
<defs>
</defs>
<g transform="matrix(1 0 0 1 640 512)" id="background-logo"  >
<rect style="stroke: none; stroke-width: 0; stroke-dasharray: none; stroke-linecap: butt; stroke-dashoffset: 0; stroke-linejoin: miter; stroke-miterlimit: 4; fill: rgb(255,255,255); fill-opacity: 0; fill-rule: nonzero; opacity: 1;"  paint-order="stroke"  x="-640" y="-512" rx="0" ry="0" width="1280" height="1024" />
</g>
<g transform="matrix(1.9211538461538462 0 0 1.9211538461538462 639.6388808559861 404.4390976730282)" id="logo-logo"  >
<g style=""  paint-order="stroke"   >
		<g transform="matrix(0.31008162354293234 0 0 0.3100816235429324 1.3821302204548829 39.46059755856902)"  >
<polygon style="stroke: none; stroke-width: 1; stroke-dasharray: none; stroke-linecap: butt; stroke-dashoffset: 0; stroke-linejoin: miter; stroke-miterlimit: 4; fill: rgb(214,213,218); fill-rule: nonzero; opacity: 1;"  paint-order="stroke"  points="-55.38188750000006,-195.80300085 27.41996180000001,-164.38456844999996 99.45690519999994,-167.56328105 122.15442159999998,-155.26269155 189.73323010000001,-116.29501124999996 380.40189999999996,-152.36839575 250.21957049999992,160.18097035000005 51.2562868,195.80300085 -207.75457520000003,72.93621625000003 -380.40190000000007,102.55720235000001 -204.59010560000002,-155.88359084999996 -55.38188750000006,-195.80300085 " />
</g>
		<g transform="matrix(0.31008162354293234 0 0 0.3100816235429324 0.8928473568319646 35.633921886387725)"  >
<path style="stroke: none; stroke-width: 1; stroke-dasharray: none; stroke-linecap: butt; stroke-dashoffset: 0; stroke-linejoin: miter; stroke-miterlimit: 4; fill: rgb(64,218,58); fill-rule: nonzero; opacity: 1;"  paint-order="stroke"  transform=" translate(-502.87939455000003, -614.91787715)" d="M 191.3536377 634.7987061 L 258.6519165 622.4934693 L 213.06274410000003 714.9664307 L 124.05541990000003 729.815918 L 191.35363770000004 634.7987061 Z M 422.5653687 675.4121704 L 489.29071050000005 777.8964233 L 555.9976807 650.9135742000001 L 496.41046150000005 622.4934692 L 422.5653687 675.4121704 Z M 348.8829346 457.0574951 L 312.1185303 530.5836792 L 412.3959351 516.1033325 L 443.9029541 451.939331 L 348.8829346 457.0574951 Z M 780.394165 494.6339111 L 730.1090698 564.1030273 L 741.1671753 588.4375 L 853.4815064000001 548.4110107 L 881.7033692000001 474.89031980000004 L 780.3941651000001 494.63391110000003 Z" stroke-linecap="round" />
</g>
		<g transform="matrix(0.31008162354293234 0 0 0.3100816235429324 -0.3989764546043375 49.42198405616077)"  >
<path style="stroke: none; stroke-width: 1; stroke-dasharray: none; stroke-linecap: butt; stroke-dashoffset: 0; stroke-linejoin: miter; stroke-miterlimit: 4; fill: rgb(16,180,251); fill-rule: nonzero; opacity: 1;"  paint-order="stroke"  transform=" translate(-498.7133179, -659.3837891000001)" d="M 751.0765381 700.1949463 L 687.1141968 750.3117066 L 624.493042 801.3035889 L 603.4222411999999 812.4465332 L 562.28302 817.6209716999999 L 626.5327148 678.197815 L 630.034851 677.4893799 L 499.99999990000003 621.9317017000001 L 631.6929931 575.1228028 L 669.6777343 501.1466065000001 L 702.9650268 516.1033326 L 632.1967773 677.0520631 L 750.4274292 653.135254 L 751.0765381 700.1949464 Z M 246.3500977 656.7285767 L 325.2265015 643.0768433 L 362.8556519 582.1939698 L 266.9990235 611.9085084 L 246.35009770000002 656.7285767999999 Z" stroke-linecap="round" />
</g>
		<g transform="matrix(0.31008162354293234 0 0 0.3100816235429324 90.53527164006778 31.183337506693846)"  >
<polygon style="stroke: rgb(16,180,251); stroke-width: 1; stroke-dasharray: none; stroke-linecap: butt; stroke-dashoffset: 0; stroke-linejoin: miter; stroke-miterlimit: 10; fill: none; fill-rule: nonzero; opacity: 1;"  paint-order="stroke"  points="-56.44368804999999,-8.697657599999957 -32.5636662500001,50.34867650000001 17.026916349999965,42.51191360000007 56.44368804999999,-50.3486764999999 -56.44368804999999,-8.697657599999957 " />
</g>
		<g transform="matrix(0.31008162354293234 0 0 0.3100816235429324 0.8353410763133411 42.685941488727536)"  >
<path style="stroke: none; stroke-width: 1; stroke-dasharray: none; stroke-linecap: butt; stroke-dashoffset: 0; stroke-linejoin: miter; stroke-miterlimit: 4; fill: rgb(249,178,0); fill-rule: nonzero; opacity: 1;"  paint-order="stroke"  transform=" translate(-502.69393924999997, -637.6603393500001)" d="M 715.7199097 593.2355347 L 671.8278199 605.1705933000001 L 713.5788575 510.96374520000006 L 751.0765382000001 505.98657230000003 L 715.7199098000001 593.2355347 Z M 402.0518188 515.0861206 L 314.98291009999997 531.6638793999999 L 352.71014399999996 462.87414549999994 L 308.18353269999994 467.13366699999995 L 191.35363769999995 628.6212768999999 L 266.99902339999994 616.8256225999999 L 372.7907713999999 577.8813476999999 L 402.0518187999999 515.0861205999998 Z M 332.4667358 643.0768433 L 301.53503409999996 705.4820556999999 L 471.10162349999996 785.3973999 L 491.4418945 790.2147827 L 420.7862549 678.1978149 L 332.4667359 643.0768432 Z M 764.3126221 650.3428955 L 762.1190186 664.3522339000001 L 735.5286866 722.2030029000001 L 653.2384644 777.8964233000002 L 640.7398072 812.4465332000002 L 751.0765382 790.2147827000002 L 814.0342407999999 643.0768432000002 L 764.3126220999999 650.3428954000002 Z" stroke-linecap="round" />
</g>
		<g transform="matrix(0.31008162354293234 0 0 0.3100816235429324 0 41.79861107757665)"  >
<path style="stroke: none; stroke-width: 1; stroke-dasharray: none; stroke-linecap: butt; stroke-dashoffset: 0; stroke-linejoin: miter; stroke-miterlimit: 4; fill: rgb(17,52,183); fill-rule: nonzero; opacity: 1;"  paint-order="stroke"  transform=" translate(-499.99999993567087, -634.7987366499999)" d="M 893.9395855 460.5917283 L 707.0677907 500.5749139 C 697.1473103000001 497.2478006 687.6846159 492.5273403 678.2508343000001 488.08958290000004 C 672.6913675000001 485.4742241 627.7831903000001 463.64916730000004 615.7754559000001 457.64530010000004 L 604.5449760000001 477.6035183 L 661.9584733000002 504.4185312 L 624.8974434000002 575.9771682 L 504.86293290000015 611.9152394 C 500.4158949000001 591.0719684000001 499.7691049000002 566.7038348 494.08631250000013 546.3633252 C 490.61856160000013 533.9515255 485.12156070000015 528.0568844 473.1407759000001 523.8597100999999 C 458.2842386000001 518.6552281999999 441.0511408000001 515.6991623999999 425.7539511000001 511.6331664999999 L 456.9433631000001 460.8663999999999 C 457.3345782000001 460.1178797999999 457.9888641000001 459.8301795999999 458.7711159000001 459.80590719999987 L 495.50446740000007 472.5535950999999 L 486.35909990000005 446.79711179999987 L 449.07551280000007 431.45583899999986 L 298.7627896000001 462.07913129999986 L 293.1562949000001 465.38536319999986 C 232.4483451000001 551.9811531999999 167.90356000000008 636.7409805999998 109.10983360000009 724.7418967999998 C 103.35583010000009 733.3543407999998 93.70475630000008 742.4511633999998 108.22826100000009 748.4445005999999 C 169.7737896000001 739.7869026999998 230.76801180000007 722.4483266999998 292.3545894000001 713.5394372999998 C 378.83312190000015 755.3591208999998 464.7728413000001 798.3360302999998 552.2206664000001 838.1416342999999 C 614.9657191000001 824.8790487999999 680.0054127000001 816.4475774999999 742.3851290000001 802.0921952999998 C 747.7129365000001 800.8660784999998 754.0012913000002 800.1928743999998 758.3023376000001 796.8418454999999 C 765.9929631000001 790.8502929999999 776.2050701000001 763.4811181999999 780.5530550000001 753.3621746999999 C 820.8014531000001 659.6938148999999 856.0259849000001 563.7463412999998 897.8738675000001 470.73155349999985 C 899.8938369000001 464.47104059999987 901.0018038000001 462.62847449999987 893.9395854 460.5917284999999 Z M 716.0275453 522.8388384 C 719.038938 519.0325222 734.8497761000001 518.0307474 739.9177254 516.103406 L 724.5446842 539.1545795 C 716.0416448 554.3575348999999 711.2053548 571.2110184 709.3267369 588.5533423999999 L 679.7714334 598.5361101999999 L 716.0275452999999 522.8388384 Z M 730.1091482 650.1609799 L 729.928354 652.6023265 L 644.1192776 669.8356028000001 C 652.4177857000001 652.9574899 660.4157436 635.6662095 670.2600155 619.6735064000001 C 675.1514539 617.9933516000001 709.1404099 603.9802827000001 710.9130142 605.2520889000001 C 714.5014136 621.3199296000001 721.6908839 636.1361318000002 730.1091481 650.1609800000001 Z M 635.1482792 587.9038753 C 647.5174236 566.4589682999999 657.3907868 543.5777019999999 669.5459408 522.0344557999999 C 670.7367197000001 519.9238215999999 675.3941786 510.46273349999996 677.5851261 510.98459159999993 C 678.5346081 511.21053979999994 692.4689699 518.2834665999999 693.153061 518.8956325999999 C 693.8127011 519.4862031999999 694.4095183 519.8931240999999 694.1120020999999 520.9064997999999 L 621.7263164 667.5313242999998 L 512.6540393 624.1765852999998 C 554.0243253 614.0098107999999 594.6691142 601.0563422999999 635.1482792 587.9038752999999 Z M 454.9612302 537.5831155 C 463.91545199999996 540.3658829999999 470.9437603 541.3148295 474.4770112 551.4894568999999 L 484.7906699 611.9084571999999 L 385.6510094 575.1319149 L 413.9737711 528.2605231 C 415.2648524 526.9762238 416.60180160000004 527.2168068 418.21252990000005 527.4332959 C 427.08858010000006 528.6256811 445.6250739000001 534.6816627 454.96123020000005 537.5831154 Z M 376.3758912 588.4375127 L 479.2292398 625.2906203 C 460.5772733 640.168753 440.2153468 653.5530578 420.5614269 667.3376799 L 345.5625241 638.0918504 L 376.3758912 588.4375127 Z M 324.3180434 632.464742 L 254.18719890000003 653.1197229 L 272.054772 622.5364088 L 348.8829447 591.8672487 L 324.3180435 632.464742 Z M 433.5464853 457.0575851 C 434.1440164 457.63655489999996 427.2106563 468.6774954 426.21869749999996 470.32873739999997 C 418.5432423 483.1040887 409.97452439999995 495.3782849 402.03956789999995 507.97659 C 375.69876059999996 514.8051858 348.94228719999995 520.2224088 322.14565709999994 525.0005162 L 358.9249656999999 472.1079452 L 433.5464851999999 457.05758510000004 Z M 222.0832859 602.6449399 L 306.5452401 483.23062680000004 C 312.0774004 477.7131014 330.8281523 479.12804370000003 338.3120156 474.89035570000004 L 285.381162 548.3961446000001 L 390.1041156 527.251074 C 380.9946214 542.6166193 372.2256556 558.2637967000001 361.0688855 572.2907865 C 330.767382 581.6292629999999 299.9121627 599.1115105 270.0232019 608.2497390999999 C 250.875256 614.1042235 228.9265167 615.6967474999999 209.6302588 621.9317385999999 L 222.08328600000002 602.6449397999999 Z M 138.3335324 722.2031031 L 196.26737079999998 640.3315213000001 L 251.94752799999998 628.6213031000001 L 201.76945819999997 709.3360160000001 L 138.33353239999997 722.203103 Z M 286.9495919 692.0209987 L 221.87955769999996 705.4820473999999 L 243.09824889999996 671.5651948999999 L 312.1184494 650.913605 L 286.949592 692.0209987 Z M 308.1835426 696.5931471 L 336.7041428 652.0365638000001 C 358.0851561 661.8363957 380.779917 668.8509615 402.3235202 678.2328071000001 C 416.74136830000003 684.5117028000001 416.78741460000003 684.2411362 426.0013161 696.8899494000001 C 444.8869052 722.8161615000001 460.1917693 752.0057717000001 479.2301322 777.8964674000001 L 308.1835426 696.5931470000002 Z M 432.5072308 679.2943708 L 492.225185 636.6995743 L 546.0741984 656.4877067 L 489.8198901 763.4191875 L 432.50723070000004 679.2943708 Z M 550.5205227 812.4465459 L 496.4104017 786.8701430000001 L 558.4337053 664.3523445000001 L 612.9177294000001 684.3385831 L 550.5205226 812.4465459 Z M 603.0993362 794.267714 C 601.0099404 797.0867116999999 596.1800756 806.4394661 594.825636 807.7102014 C 592.8706312 809.5442008 576.6598328 811.7158731 572.8203204 811.8939902 L 633.2466382 691.2901475 C 668.9582258 683.6991105 704.5409551 675.4834142999999 739.9139774 666.4997443 C 746.5094861 694.7205973 726.0147749 715.9177824 703.1843738 728.3549254 C 658.4395004 752.7307334 637.2462418 748.1980278 603.0993362 794.2677140999999 Z M 745.4857589 778.4550912 L 650.7986691 796.8354201999999 C 672.887689 760.4895357999999 719.3594774 753.6612969999999 748.3068982 725.5721577999999 C 765.0675752 709.3083525999999 780.133998 681.3527119999999 776.7105086 657.6110223999999 L 798.9642601 653.1352499999999 L 745.4857588000001 778.4550910999999 Z M 805.3994992 636.1677217 L 771.1944111 643.0768093 C 763.9933399 625.4037729 753.423571 608.7646368000001 750.427527 589.5633271 L 837.9631614000001 560.6730179 L 805.3994992000002 636.1677217 Z M 845.7533754 540.0428449 C 815.0501267999999 553.383602 782.3101322 561.0280028 751.0764587 572.9165165 C 752.8776189 561.5348690999999 755.6755565999999 551.4257415999999 761.3092686 541.3828281 C 765.66118 533.6247394 783.1664507 509.73902119999997 790.1010601 505.558088 C 796.0172966 501.991284 831.9284181 495.2028449 841.2940226000001 493.2485539 C 849.8154448 491.4704169 858.4423452000001 490.1688056 866.922183 488.2509234 C 860.906715 505.7613699 852.854501 522.8420509 845.7533753 540.0428449 Z" stroke-linecap="round" />
</g>
		<g transform="matrix(0.31008162354293234 0 0 0.3100816235429324 17.27576283941204 -40.77865159653433)"  >
<path style="stroke: none; stroke-width: 1; stroke-dasharray: none; stroke-linecap: butt; stroke-dashoffset: 0; stroke-linejoin: miter; stroke-miterlimit: 4; fill: rgb(254,44,83); fill-rule: nonzero; opacity: 1;"  paint-order="stroke"  transform=" translate(-555.7135976717202, -368.49058936091126)" d="M 546.1300609 162.149912 C 468.1190514 166.9123137 411.2281262 232.81600020000002 415.9582241 310.6053449 C 418.8827 358.69928389999995 470.1395562 438.5739195 494.91871549999996 482.31237769999996 C 512.5726551 513.4735908 530.4957336 544.5459238 549.1441307 575.1228128 L 676.1732179 372.40680530000003 C 732.6388394 274.05385850000005 660.0639712000001 155.19459960000003 546.1300609 162.14991200000003 Z M 625.6595276 333.0338225 C 594.3605326 408.3098956 473.7038615 385.6815271 480.58528570000004 294.91105039999997 C 482.98129990000007 263.30311679999994 512.1510995000001 231.46138209999998 543.8825371 227.86120349999996 C 602.1917956 221.24588419999995 648.7406848 277.52232319999996 625.6595276 333.0338224999999 Z" stroke-linecap="round" />
</g>
</g>
</g>
<g transform="matrix(1.9211538461538462 0 0 1.9211538461538462 643.1913029723056 697.6215980977508)" id="text-logo"  >
<g style=""  paint-order="stroke"   >
		<g transform="matrix(1 0 0 1 0 0)" id="text-logo-path-0"  >
<path style="stroke: none; stroke-width: 0; stroke-dasharray: none; stroke-linecap: butt; stroke-dashoffset: 0; stroke-linejoin: miter; stroke-miterlimit: 4; fill: rgb(17,53,182); fill-rule: nonzero; opacity: 1;"  paint-order="stroke"  transform=" translate(-201.74162691029065, 21.505)" d="M 3.97 -31.36 L 16.13 -31.36 L 10.94 0 L 22.46 0 L 27.65 -31.36 L 38.53 -31.36 L 40.58 -43.52 L 6.02 -43.52 Z M 38.46 0 L 66.62 0 L 68.54 -11.65 L 51.9 -11.65 L 52.67 -16.19 L 66.75 -16.19 L 68.67 -27.84 L 54.59 -27.84 L 55.3 -31.87 L 71.23 -31.87 L 73.15 -43.52 L 45.7 -43.52 Z M 93.06 0 L 105.47 0 L 100.29 -18.37 C 104.58 -20.48 107.52 -25.34 108.42 -30.72 C 109.89 -39.62 105.79 -43.52 94.46 -43.52 L 80.26 -43.52 L 73.02 0 L 84.54 0 L 86.85 -14.02 L 89.02 -14.02 Z M 88.38 -22.98 L 89.86 -32 L 91.33 -32 C 94.59 -32 96.38 -31.04 95.81 -27.65 C 95.3 -24.38 93.12 -22.98 89.79 -22.98 Z M 131.65 0 L 144.06 0 L 138.88 -18.37 C 143.17 -20.48 146.11 -25.34 147.01 -30.72 C 148.48 -39.62 144.38 -43.52 133.06 -43.52 L 118.85 -43.52 L 111.62 0 L 123.14 0 L 125.44 -14.02 L 127.62 -14.02 Z M 126.98 -22.98 L 128.45 -32 L 129.92 -32 C 133.18 -32 134.98 -31.04 134.4 -27.65 C 133.89 -24.38 131.71 -22.98 128.38 -22.98 Z M 149.18 0 L 160.7 0 L 167.94 -43.52 L 156.42 -43.52 Z M 171.01 -31.36 L 183.17 -31.36 L 177.98 0 L 189.5 0 L 194.69 -31.36 L 205.57 -31.36 L 207.62 -43.52 L 173.06 -43.52 Z M 224.64 0.64 C 236.8 0.64 245.82 -8 248.13 -21.76 C 250.43 -35.52 244.22 -44.16 232.06 -44.16 C 219.97 -44.16 210.82 -35.52 208.58 -21.76 C 206.27 -8 212.48 0.64 224.64 0.64 Z M 226.69 -11.65 C 221.44 -11.65 219.14 -15.3 220.16 -21.76 C 221.25 -28.22 224.83 -31.87 230.02 -31.87 C 235.2 -31.87 237.57 -28.22 236.48 -21.76 C 235.39 -15.3 231.87 -11.65 226.69 -11.65 Z M 270.98 0 L 283.39 0 L 278.21 -18.37 C 282.5 -20.48 285.44 -25.34 286.34 -30.72 C 287.81 -39.62 283.71 -43.52 272.38 -43.52 L 258.18 -43.52 L 250.94 0 L 262.46 0 L 264.77 -14.02 L 266.94 -14.02 Z M 266.3 -22.98 L 267.78 -32 L 269.25 -32 C 272.51 -32 274.3 -31.04 273.73 -27.65 C 273.22 -24.38 271.04 -22.98 267.71 -22.98 Z M 300.74 -14.34 L 300.8 -14.34 L 298.37 0 L 309.89 0 L 312.32 -14.4 L 331.39 -43.52 L 318.98 -43.52 L 309.18 -26.75 L 304.9 -43.52 L 291.14 -43.52 Z M 328.32 1.15 C 332.22 1.15 334.4 -1.28 334.4 -5.63 C 334.4 -9.98 332.22 -12.42 328.32 -12.42 C 324.35 -12.42 322.18 -9.98 322.18 -5.63 C 322.18 -1.28 324.35 1.15 328.32 1.15 Z M 339.01 0 L 350.53 0 L 357.76 -43.52 L 346.24 -43.52 Z M 375.55 0.64 C 387.71 0.64 396.74 -8 399.04 -21.76 C 401.34 -35.52 395.14 -44.16 382.98 -44.16 C 370.88 -44.16 361.73 -35.52 359.49 -21.76 C 357.18 -8 363.39 0.64 375.55 0.64 Z M 377.6 -11.65 C 372.35 -11.65 370.05 -15.3 371.07 -21.76 C 372.16 -28.22 375.74 -31.87 380.93 -31.87 C 386.11 -31.87 388.48 -28.22 387.39 -21.76 C 386.3 -15.3 382.78 -11.65 377.6 -11.65 Z" stroke-linecap="round" />
</g>
</g>
</g>
<g transform="matrix(1.9211538461538462 0 0 1.9211538461538462 639.8126875 787.8979116747716)" id="tagline-28924a8e-1463-4d69-b85e-ef9b76917e49-logo"  >
<g style=""  paint-order="stroke"   >
		<g transform="matrix(1 0 0 1 0 0)" id="tagline-28924a8e-1463-4d69-b85e-ef9b76917e49-logo-path-0"  >
<path style="stroke: none; stroke-width: 0; stroke-dasharray: none; stroke-linecap: butt; stroke-dashoffset: 0; stroke-linejoin: miter; stroke-miterlimit: 4; fill: rgb(255,45,83); fill-rule: nonzero; opacity: 1;"  paint-order="stroke"  transform=" translate(-175, 4.5200000000000005)" d="M 2.77 0 L 5.32 0 L 5.32 -6.73 L 7.89 -6.73 L 7.89 -9.1 L 0.2 -9.1 L 0.2 -6.73 L 2.77 -6.73 Z M 14.12 0 L 16.67 0 L 16.67 -3.22 L 18.84 -3.22 L 18.84 0 L 21.39 0 L 21.39 -9.1 L 18.84 -9.1 L 18.84 -5.77 L 16.67 -5.77 L 16.67 -9.1 L 14.12 -9.1 Z M 28.2 0 L 34.81 0 L 34.81 -2.37 L 30.74 -2.37 L 30.74 -3.38 L 34.02 -3.38 L 34.02 -5.75 L 30.74 -5.75 L 30.74 -6.73 L 34.55 -6.73 L 34.55 -9.1 L 28.2 -9.1 Z M 52.61 0 L 54.82 0 L 56.47 -6.97 L 56.47 0 L 58.73 0 L 58.73 -9.1 L 54.86 -9.1 L 53.89 -3.74 L 52.81 -9.1 L 49.06 -9.1 L 49.06 0 L 50.9 0 L 50.9 -6.83 Z M 64.82 0 L 66.94 0 L 67.46 -1.56 L 70.79 -1.56 L 71.31 0 L 73.68 0 L 70.75 -9.1 L 67.76 -9.1 Z M 68.12 -3.54 L 69.12 -6.51 L 70.12 -3.54 Z M 79.77 0 L 82 0 L 82 -2.35 L 83.53 -2.35 C 85.93 -2.35 86.91 -3.91 86.91 -5.82 C 86.91 -7.74 85.93 -9.1 83.75 -9.1 L 79.77 -9.1 Z M 82 -4.72 L 82 -6.73 L 83.34 -6.73 C 84.03 -6.73 84.36 -6.53 84.36 -5.8 C 84.36 -5.1 84.02 -4.72 83.3 -4.72 Z M 103.14 0 L 105.69 0 L 105.69 -6.73 L 108.26 -6.73 L 108.26 -9.1 L 100.57 -9.1 L 100.57 -6.73 L 103.14 -6.73 Z M 118.07 0.2 C 120.7 0.2 122.19 -1.52 122.19 -4.56 C 122.19 -7.59 120.7 -9.29 118.07 -9.29 C 115.52 -9.29 114.07 -7.59 114.07 -4.56 C 114.07 -1.52 115.52 0.2 118.07 0.2 Z M 118.14 -2.17 C 117.1 -2.17 116.65 -2.87 116.65 -4.58 C 116.65 -6.27 117.1 -6.93 118.14 -6.93 C 119.16 -6.93 119.61 -6.27 119.61 -4.58 C 119.61 -2.87 119.16 -2.17 118.14 -2.17 Z M 139.59 0.2 C 142.88 0.2 143.23 -1.52 143.23 -2.61 C 143.23 -4.33 142.38 -4.89 140.13 -5.54 C 139.41 -5.75 138.8 -5.95 138.8 -6.47 C 138.8 -6.81 139.07 -6.94 139.66 -6.94 C 140.71 -6.94 141.43 -6.59 141.97 -6.14 L 143.09 -8.03 C 142.23 -8.91 141.18 -9.31 139.8 -9.31 C 137.51 -9.31 136.44 -8.03 136.44 -6.49 C 136.44 -4.58 137.23 -3.87 139.59 -3.33 C 140.8 -3.06 140.95 -2.89 140.95 -2.59 C 140.95 -2.29 140.8 -2.11 140.06 -2.11 C 138.93 -2.11 138.06 -2.54 137.4 -3.07 L 136.02 -1.14 C 137.02 -0.13 138.31 0.2 139.59 0.2 Z M 153.18 0 L 155.39 0 L 157.04 -6.97 L 157.04 0 L 159.3 0 L 159.3 -9.1 L 155.43 -9.1 L 154.45 -3.74 L 153.37 -9.1 L 149.63 -9.1 L 149.63 0 L 151.46 0 L 151.46 -6.83 Z M 165.39 0 L 167.51 0 L 168.03 -1.56 L 171.35 -1.56 L 171.87 0 L 174.25 0 L 171.31 -9.1 L 168.32 -9.1 Z M 168.69 -3.54 L 169.69 -6.51 L 170.69 -3.54 Z M 185.43 0 L 188.32 -0.03 L 185.95 -3.5 C 186.82 -3.93 187.69 -4.55 187.69 -6.33 C 187.69 -8.05 186.42 -9.1 184.44 -9.1 L 180.34 -9.1 L 180.34 0 L 182.57 0 L 182.57 -3.15 L 183.34 -3.15 Z M 182.57 -5.25 L 182.57 -6.99 L 184.39 -6.99 C 184.99 -6.99 185.25 -6.75 185.25 -6.2 C 185.25 -5.58 184.93 -5.25 184.39 -5.25 Z M 196.42 0 L 198.97 0 L 198.97 -6.73 L 201.54 -6.73 L 201.54 -9.1 L 193.84 -9.1 L 193.84 -6.73 L 196.42 -6.73 Z M 207.77 0 L 214.38 0 L 214.38 -2.37 L 210.31 -2.37 L 210.31 -3.38 L 213.59 -3.38 L 213.59 -5.75 L 210.31 -5.75 L 210.31 -6.73 L 214.12 -6.73 L 214.12 -9.1 L 207.77 -9.1 Z M 225.88 0 L 228.76 -0.03 L 226.4 -3.5 C 227.27 -3.93 228.14 -4.55 228.14 -6.33 C 228.14 -8.05 226.86 -9.1 224.89 -9.1 L 220.78 -9.1 L 220.78 0 L 223.02 0 L 223.02 -3.15 L 223.78 -3.15 Z M 223.02 -5.25 L 223.02 -6.99 L 224.84 -6.99 C 225.43 -6.99 225.69 -6.75 225.69 -6.2 C 225.69 -5.58 225.37 -5.25 224.84 -5.25 Z M 242.72 0 L 244.96 0 L 244.96 -0.01 L 247.51 -0.01 C 249.16 -0.01 250.56 -1.16 250.56 -2.93 C 250.56 -3.95 250.09 -4.71 249.03 -5.12 C 249.63 -5.47 250.08 -6.01 250.08 -7.02 C 250.08 -8.31 249.03 -9.1 247.39 -9.1 L 242.72 -9.1 Z M 244.96 -2.24 L 244.96 -3.54 L 247.25 -3.54 C 247.64 -3.54 247.99 -3.41 247.99 -2.93 C 247.99 -2.44 247.78 -2.25 247.14 -2.25 Z M 244.96 -5.64 L 244.96 -6.99 L 246.79 -6.99 C 247.25 -6.99 247.64 -6.79 247.64 -6.33 C 247.64 -5.88 247.2 -5.64 246.79 -5.64 Z M 260.81 0.2 C 263.5 0.2 264.58 -1.27 264.58 -3.87 L 264.58 -9.1 L 262.33 -9.1 L 262.34 -3.89 C 262.34 -2.85 261.81 -2.38 260.81 -2.38 C 259.81 -2.38 259.19 -2.85 259.19 -3.89 L 259.21 -9.1 L 256.96 -9.1 L 256.96 -3.87 C 256.96 -1.27 258.12 0.2 260.81 0.2 Z M 274.55 0.2 C 277.84 0.2 278.19 -1.52 278.19 -2.61 C 278.19 -4.33 277.33 -4.89 275.08 -5.54 C 274.37 -5.75 273.75 -5.95 273.75 -6.47 C 273.75 -6.81 274.03 -6.94 274.61 -6.94 C 275.67 -6.94 276.38 -6.59 276.93 -6.14 L 278.04 -8.03 C 277.19 -8.91 276.13 -9.31 274.76 -9.31 C 272.47 -9.31 271.39 -8.03 271.39 -6.49 C 271.39 -4.58 272.18 -3.87 274.55 -3.33 C 275.76 -3.06 275.9 -2.89 275.9 -2.59 C 275.9 -2.29 275.76 -2.11 275.02 -2.11 C 273.88 -2.11 273.01 -2.54 272.35 -3.07 L 270.97 -1.14 C 271.97 -0.13 273.26 0.2 274.55 0.2 Z M 284.58 0 L 287.13 0 L 287.13 -9.1 L 284.58 -9.1 Z M 293.94 0 L 296.08 0 L 296.08 -5.14 L 299.42 0 L 301.5 0 L 301.5 -9.1 L 299.36 -9.1 L 299.36 -4.69 L 296.31 -9.1 L 293.94 -9.1 Z M 308.31 0 L 314.93 0 L 314.93 -2.37 L 310.86 -2.37 L 310.86 -3.38 L 314.13 -3.38 L 314.13 -5.75 L 310.86 -5.75 L 310.86 -6.73 L 314.67 -6.73 L 314.67 -9.1 L 308.31 -9.1 Z M 324.48 0.2 C 327.77 0.2 328.12 -1.52 328.12 -2.61 C 328.12 -4.33 327.26 -4.89 325.01 -5.54 C 324.3 -5.75 323.69 -5.95 323.69 -6.47 C 323.69 -6.81 323.96 -6.94 324.55 -6.94 C 325.6 -6.94 326.31 -6.59 326.86 -6.14 L 327.98 -8.03 C 327.12 -8.91 326.07 -9.31 324.69 -9.31 C 322.4 -9.31 321.32 -8.03 321.32 -6.49 C 321.32 -4.58 322.11 -3.87 324.48 -3.33 C 325.69 -3.06 325.83 -2.89 325.83 -2.59 C 325.83 -2.29 325.69 -2.11 324.95 -2.11 C 323.82 -2.11 322.95 -2.54 322.28 -3.07 L 320.91 -1.14 C 321.91 -0.13 323.19 0.2 324.48 0.2 Z M 337.68 0.2 C 340.96 0.2 341.32 -1.52 341.32 -2.61 C 341.32 -4.33 340.46 -4.89 338.21 -5.54 C 337.49 -5.75 336.88 -5.95 336.88 -6.47 C 336.88 -6.81 337.16 -6.94 337.74 -6.94 C 338.79 -6.94 339.51 -6.59 340.05 -6.14 L 341.17 -8.03 C 340.31 -8.91 339.26 -9.31 337.88 -9.31 C 335.6 -9.31 334.52 -8.03 334.52 -6.49 C 334.52 -4.58 335.31 -3.87 337.68 -3.33 C 338.88 -3.06 339.03 -2.89 339.03 -2.59 C 339.03 -2.29 338.88 -2.11 338.14 -2.11 C 337.01 -2.11 336.14 -2.54 335.48 -3.07 L 334.1 -1.14 C 335.1 -0.13 336.39 0.2 337.68 0.2 Z M 348.57 0.27 C 349.25 0.27 349.8 -0.29 349.8 -0.96 C 349.8 -1.64 349.25 -2.2 348.57 -2.2 C 347.89 -2.2 347.33 -1.64 347.33 -0.96 C 347.33 -0.29 347.89 0.27 348.57 0.27 Z" stroke-linecap="round" />
</g>
</g>
</g>
</svg>