<?xml version="1.0" encoding="UTF-8" standalone="no" ?>
<!DOCTYPE svg PUBLIC "-//W3C//DTD SVG 1.1//EN" "http://www.w3.org/Graphics/SVG/1.1/DTD/svg11.dtd">
<svg xmlns="http://www.w3.org/2000/svg" xmlns:xlink="http://www.w3.org/1999/xlink" version="1.1" width="1280" height="1024" viewBox="0 0 1280 1024" xml:space="preserve">
<desc>Created with Fabric.js 5.3.0</desc>
<defs>
</defs>
<g transform="matrix(1 0 0 1 640 512)" id="background-logo"  >
<rect style="stroke: none; stroke-width: 0; stroke-dasharray: none; stroke-linecap: butt; stroke-dashoffset: 0; stroke-linejoin: miter; stroke-miterlimit: 4; fill: rgb(255,255,255); fill-opacity: 0; fill-rule: nonzero; opacity: 1;"  paint-order="stroke"  x="-640" y="-512" rx="0" ry="0" width="1280" height="1024" />
</g>
<g transform="matrix(1.9211538461538462 0 0 1.9211538461538462 639.4515683559864 511.0430217220525)" id="tagline-28924a8e-1463-4d69-b85e-ef9b76917e49-logo"  >
<g style=""  paint-order="stroke"   >
		<g transform="matrix(1 0 0 1 0 0)" id="tagline-28924a8e-1463-4d69-b85e-ef9b76917e49-logo-path-0"  >
<path style="stroke: none; stroke-width: 0; stroke-dasharray: none; stroke-linecap: butt; stroke-dashoffset: 0; stroke-linejoin: miter; stroke-miterlimit: 4; fill: rgb(255,45,83); fill-rule: nonzero; opacity: 1;"  paint-order="stroke"  transform=" translate(-175, 4.5200000000000005)" d="M 2.77 0 L 5.32 0 L 5.32 -6.73 L 7.89 -6.73 L 7.89 -9.1 L 0.2 -9.1 L 0.2 -6.73 L 2.77 -6.73 Z M 14.12 0 L 16.67 0 L 16.67 -3.22 L 18.84 -3.22 L 18.84 0 L 21.39 0 L 21.39 -9.1 L 18.84 -9.1 L 18.84 -5.77 L 16.67 -5.77 L 16.67 -9.1 L 14.12 -9.1 Z M 28.2 0 L 34.81 0 L 34.81 -2.37 L 30.74 -2.37 L 30.74 -3.38 L 34.02 -3.38 L 34.02 -5.75 L 30.74 -5.75 L 30.74 -6.73 L 34.55 -6.73 L 34.55 -9.1 L 28.2 -9.1 Z M 52.61 0 L 54.82 0 L 56.47 -6.97 L 56.47 0 L 58.73 0 L 58.73 -9.1 L 54.86 -9.1 L 53.89 -3.74 L 52.81 -9.1 L 49.06 -9.1 L 49.06 0 L 50.9 0 L 50.9 -6.83 Z M 64.82 0 L 66.94 0 L 67.46 -1.56 L 70.79 -1.56 L 71.31 0 L 73.68 0 L 70.75 -9.1 L 67.76 -9.1 Z M 68.12 -3.54 L 69.12 -6.51 L 70.12 -3.54 Z M 79.77 0 L 82 0 L 82 -2.35 L 83.53 -2.35 C 85.93 -2.35 86.91 -3.91 86.91 -5.82 C 86.91 -7.74 85.93 -9.1 83.75 -9.1 L 79.77 -9.1 Z M 82 -4.72 L 82 -6.73 L 83.34 -6.73 C 84.03 -6.73 84.36 -6.53 84.36 -5.8 C 84.36 -5.1 84.02 -4.72 83.3 -4.72 Z M 103.14 0 L 105.69 0 L 105.69 -6.73 L 108.26 -6.73 L 108.26 -9.1 L 100.57 -9.1 L 100.57 -6.73 L 103.14 -6.73 Z M 118.07 0.2 C 120.7 0.2 122.19 -1.52 122.19 -4.56 C 122.19 -7.59 120.7 -9.29 118.07 -9.29 C 115.52 -9.29 114.07 -7.59 114.07 -4.56 C 114.07 -1.52 115.52 0.2 118.07 0.2 Z M 118.14 -2.17 C 117.1 -2.17 116.65 -2.87 116.65 -4.58 C 116.65 -6.27 117.1 -6.93 118.14 -6.93 C 119.16 -6.93 119.61 -6.27 119.61 -4.58 C 119.61 -2.87 119.16 -2.17 118.14 -2.17 Z M 139.59 0.2 C 142.88 0.2 143.23 -1.52 143.23 -2.61 C 143.23 -4.33 142.38 -4.89 140.13 -5.54 C 139.41 -5.75 138.8 -5.95 138.8 -6.47 C 138.8 -6.81 139.07 -6.94 139.66 -6.94 C 140.71 -6.94 141.43 -6.59 141.97 -6.14 L 143.09 -8.03 C 142.23 -8.91 141.18 -9.31 139.8 -9.31 C 137.51 -9.31 136.44 -8.03 136.44 -6.49 C 136.44 -4.58 137.23 -3.87 139.59 -3.33 C 140.8 -3.06 140.95 -2.89 140.95 -2.59 C 140.95 -2.29 140.8 -2.11 140.06 -2.11 C 138.93 -2.11 138.06 -2.54 137.4 -3.07 L 136.02 -1.14 C 137.02 -0.13 138.31 0.2 139.59 0.2 Z M 153.18 0 L 155.39 0 L 157.04 -6.97 L 157.04 0 L 159.3 0 L 159.3 -9.1 L 155.43 -9.1 L 154.45 -3.74 L 153.37 -9.1 L 149.63 -9.1 L 149.63 0 L 151.46 0 L 151.46 -6.83 Z M 165.39 0 L 167.51 0 L 168.03 -1.56 L 171.35 -1.56 L 171.87 0 L 174.25 0 L 171.31 -9.1 L 168.32 -9.1 Z M 168.69 -3.54 L 169.69 -6.51 L 170.69 -3.54 Z M 185.43 0 L 188.32 -0.03 L 185.95 -3.5 C 186.82 -3.93 187.69 -4.55 187.69 -6.33 C 187.69 -8.05 186.42 -9.1 184.44 -9.1 L 180.34 -9.1 L 180.34 0 L 182.57 0 L 182.57 -3.15 L 183.34 -3.15 Z M 182.57 -5.25 L 182.57 -6.99 L 184.39 -6.99 C 184.99 -6.99 185.25 -6.75 185.25 -6.2 C 185.25 -5.58 184.93 -5.25 184.39 -5.25 Z M 196.42 0 L 198.97 0 L 198.97 -6.73 L 201.54 -6.73 L 201.54 -9.1 L 193.84 -9.1 L 193.84 -6.73 L 196.42 -6.73 Z M 207.77 0 L 214.38 0 L 214.38 -2.37 L 210.31 -2.37 L 210.31 -3.38 L 213.59 -3.38 L 213.59 -5.75 L 210.31 -5.75 L 210.31 -6.73 L 214.12 -6.73 L 214.12 -9.1 L 207.77 -9.1 Z M 225.88 0 L 228.76 -0.03 L 226.4 -3.5 C 227.27 -3.93 228.14 -4.55 228.14 -6.33 C 228.14 -8.05 226.86 -9.1 224.89 -9.1 L 220.78 -9.1 L 220.78 0 L 223.02 0 L 223.02 -3.15 L 223.78 -3.15 Z M 223.02 -5.25 L 223.02 -6.99 L 224.84 -6.99 C 225.43 -6.99 225.69 -6.75 225.69 -6.2 C 225.69 -5.58 225.37 -5.25 224.84 -5.25 Z M 242.72 0 L 244.96 0 L 244.96 -0.01 L 247.51 -0.01 C 249.16 -0.01 250.56 -1.16 250.56 -2.93 C 250.56 -3.95 250.09 -4.71 249.03 -5.12 C 249.63 -5.47 250.08 -6.01 250.08 -7.02 C 250.08 -8.31 249.03 -9.1 247.39 -9.1 L 242.72 -9.1 Z M 244.96 -2.24 L 244.96 -3.54 L 247.25 -3.54 C 247.64 -3.54 247.99 -3.41 247.99 -2.93 C 247.99 -2.44 247.78 -2.25 247.14 -2.25 Z M 244.96 -5.64 L 244.96 -6.99 L 246.79 -6.99 C 247.25 -6.99 247.64 -6.79 247.64 -6.33 C 247.64 -5.88 247.2 -5.64 246.79 -5.64 Z M 260.81 0.2 C 263.5 0.2 264.58 -1.27 264.58 -3.87 L 264.58 -9.1 L 262.33 -9.1 L 262.34 -3.89 C 262.34 -2.85 261.81 -2.38 260.81 -2.38 C 259.81 -2.38 259.19 -2.85 259.19 -3.89 L 259.21 -9.1 L 256.96 -9.1 L 256.96 -3.87 C 256.96 -1.27 258.12 0.2 260.81 0.2 Z M 274.55 0.2 C 277.84 0.2 278.19 -1.52 278.19 -2.61 C 278.19 -4.33 277.33 -4.89 275.08 -5.54 C 274.37 -5.75 273.75 -5.95 273.75 -6.47 C 273.75 -6.81 274.03 -6.94 274.61 -6.94 C 275.67 -6.94 276.38 -6.59 276.93 -6.14 L 278.04 -8.03 C 277.19 -8.91 276.13 -9.31 274.76 -9.31 C 272.47 -9.31 271.39 -8.03 271.39 -6.49 C 271.39 -4.58 272.18 -3.87 274.55 -3.33 C 275.76 -3.06 275.9 -2.89 275.9 -2.59 C 275.9 -2.29 275.76 -2.11 275.02 -2.11 C 273.88 -2.11 273.01 -2.54 272.35 -3.07 L 270.97 -1.14 C 271.97 -0.13 273.26 0.2 274.55 0.2 Z M 284.58 0 L 287.13 0 L 287.13 -9.1 L 284.58 -9.1 Z M 293.94 0 L 296.08 0 L 296.08 -5.14 L 299.42 0 L 301.5 0 L 301.5 -9.1 L 299.36 -9.1 L 299.36 -4.69 L 296.31 -9.1 L 293.94 -9.1 Z M 308.31 0 L 314.93 0 L 314.93 -2.37 L 310.86 -2.37 L 310.86 -3.38 L 314.13 -3.38 L 314.13 -5.75 L 310.86 -5.75 L 310.86 -6.73 L 314.67 -6.73 L 314.67 -9.1 L 308.31 -9.1 Z M 324.48 0.2 C 327.77 0.2 328.12 -1.52 328.12 -2.61 C 328.12 -4.33 327.26 -4.89 325.01 -5.54 C 324.3 -5.75 323.69 -5.95 323.69 -6.47 C 323.69 -6.81 323.96 -6.94 324.55 -6.94 C 325.6 -6.94 326.31 -6.59 326.86 -6.14 L 327.98 -8.03 C 327.12 -8.91 326.07 -9.31 324.69 -9.31 C 322.4 -9.31 321.32 -8.03 321.32 -6.49 C 321.32 -4.58 322.11 -3.87 324.48 -3.33 C 325.69 -3.06 325.83 -2.89 325.83 -2.59 C 325.83 -2.29 325.69 -2.11 324.95 -2.11 C 323.82 -2.11 322.95 -2.54 322.28 -3.07 L 320.91 -1.14 C 321.91 -0.13 323.19 0.2 324.48 0.2 Z M 337.68 0.2 C 340.96 0.2 341.32 -1.52 341.32 -2.61 C 341.32 -4.33 340.46 -4.89 338.21 -5.54 C 337.49 -5.75 336.88 -5.95 336.88 -6.47 C 336.88 -6.81 337.16 -6.94 337.74 -6.94 C 338.79 -6.94 339.51 -6.59 340.05 -6.14 L 341.17 -8.03 C 340.31 -8.91 339.26 -9.31 337.88 -9.31 C 335.6 -9.31 334.52 -8.03 334.52 -6.49 C 334.52 -4.58 335.31 -3.87 337.68 -3.33 C 338.88 -3.06 339.03 -2.89 339.03 -2.59 C 339.03 -2.29 338.88 -2.11 338.14 -2.11 C 337.01 -2.11 336.14 -2.54 335.48 -3.07 L 334.1 -1.14 C 335.1 -0.13 336.39 0.2 337.68 0.2 Z M 348.57 0.27 C 349.25 0.27 349.8 -0.29 349.8 -0.96 C 349.8 -1.64 349.25 -2.2 348.57 -2.2 C 347.89 -2.2 347.33 -1.64 347.33 -0.96 C 347.33 -0.29 347.89 0.27 348.57 0.27 Z" stroke-linecap="round" />
</g>
</g>
</g>
</svg>